<svg width="60" height="60" fill="none" xmlns="http://www.w3.org/2000/svg">
    <path
        d="M0 4.298C0 1.924 1.972 0 4.406 0h51.188C58.028 0 60 1.924 60 4.298v51.404C60 58.077 58.028 60 55.594 60H4.406C1.973 60 0 58.076 0 55.703V4.297Zm18.536 45.93V23.133H9.532v27.093h9.004Zm-4.5-30.796c3.139 0 5.093-2.077 5.093-4.68-.056-2.658-1.95-4.68-5.033-4.68-3.082 0-5.096 2.026-5.096 4.68 0 2.603 1.954 4.68 4.976 4.68h.06Zm18.405 30.796V35.096c0-.81.06-1.62.3-2.197.649-1.617 2.13-3.293 4.62-3.293 3.259 0 4.56 2.483 4.56 6.128v14.493h9.004v-15.54c0-8.324-4.44-12.194-10.365-12.194-4.778 0-6.919 2.625-8.119 4.473v.094h-.06l.06-.094v-3.832h-9c.113 2.542 0 27.093 0 27.093h9Z"
        fill="#0C2C38" />
</svg>