<svg viewBox="0 0 60 60" fill="none" xmlns="http://www.w3.org/2000/svg">
    <g clip-path="url(#a)">
        <path
            d="M29.992 19.995c-5.509 0-10.004 4.496-10.004 10.004 0 5.51 4.495 10.005 10.004 10.005 5.509 0 10.004-4.496 10.004-10.005 0-5.508-4.495-10.004-10.004-10.004ZM59.997 30c0-4.142.037-8.247-.196-12.383-.232-4.803-1.328-9.066-4.84-12.578C51.44 1.518 47.186.43 42.383.198 38.24-.036 34.135.001 29.999.001c-4.142 0-8.247-.037-12.383.195C12.813.43 8.55 1.526 5.038 5.038 1.518 8.558.43 12.813.198 17.616-.036 21.76.001 25.864.001 30c0 4.136-.037 8.248.195 12.384.233 4.803 1.329 9.066 4.841 12.578 3.52 3.52 7.775 4.608 12.578 4.84 4.143.233 8.248.196 12.383.196 4.143 0 8.248.037 12.384-.196 4.803-.232 9.066-1.328 12.578-4.84 3.52-3.52 4.608-7.775 4.84-12.578.24-4.136.196-8.24.196-12.384ZM29.992 45.392A15.371 15.371 0 0 1 14.599 30a15.37 15.37 0 0 1 15.393-15.392 15.37 15.37 0 0 1 15.393 15.392 15.371 15.371 0 0 1-15.393 15.393Zm16.023-27.82a3.59 3.59 0 0 1-3.595-3.596 3.59 3.59 0 0 1 3.595-3.594 3.59 3.59 0 0 1 3.595 3.594 3.59 3.59 0 0 1-3.595 3.595Z"
            fill="#0C2C38" />
    </g>
    <defs>
        <clipPath id="a">
            <path fill="#fff" d="M0 0h60v59.999H0z" />
        </clipPath>
    </defs>
</svg>